<?xml version="1.0" encoding="iso-8859-1"?>
<!-- Uploaded to: SVG Repo, www.svgrepo.com, Generator: SVG Repo Mixer Tools -->
<!DOCTYPE svg PUBLIC "-//W3C//DTD SVG 1.1//EN" "http://www.w3.org/Graphics/SVG/1.1/DTD/svg11.dtd">
<svg fill="#000000" height="800px" width="800px" version="1.1" id="Capa_1" xmlns="http://www.w3.org/2000/svg" xmlns:xlink="http://www.w3.org/1999/xlink" 
	 viewBox="0 0 174.845 174.845" xml:space="preserve">
<path d="M166.924,167.256H7.92c-1.381,0-2.5-1.119-2.5-2.5V51.617H2.5c-0.863,0-1.665-0.445-2.121-1.177
	c-0.457-0.732-0.503-1.647-0.124-2.423l17.962-36.679c0.419-0.857,1.291-1.4,2.245-1.4h63.113c0.038,0,0.075,0.001,0.112,0.003
	l2.137-1.775c0.926-0.77,2.27-0.77,3.195,0l2.137,1.775c0.038-0.002,0.075-0.003,0.113-0.003h63.113c0.954,0,1.825,0.543,2.245,1.4
	l17.962,36.679c0.38,0.775,0.333,1.69-0.124,2.423c-0.456,0.731-1.259,1.177-2.121,1.177h-2.921v113.139
	C169.424,166.137,168.305,167.256,166.924,167.256z M108.352,162.256h56.071V51.617h-43.529c-1.381,0-2.5-1.119-2.5-2.5V39.064
	L87.422,13.339L56.45,39.064v10.054c0,1.381-1.119,2.5-2.5,2.5H10.42v110.639h56.072V94.288c0-1.381,1.119-2.5,2.5-2.5h36.86
	c1.381,0,2.5,1.119,2.5,2.5V162.256z M71.492,162.256h31.86V96.788h-31.86V162.256z M127.726,46.617h40.61l-15.514-31.679H97.174
	l25.348,21.054c0.685,0.568,1.006,1.448,0.873,2.306v8.319H127.726z M27.988,46.617H51.45v-8.414
	c-0.1-0.826,0.213-1.663,0.873-2.211L77.67,14.939H22.021L6.508,46.617H27.988z M149.951,135.816H126.1c-1.381,0-2.5-1.119-2.5-2.5
	V94.288c0-1.381,1.119-2.5,2.5-2.5h23.851c1.381,0,2.5,1.119,2.5,2.5v39.028C152.451,134.697,151.332,135.816,149.951,135.816z
	 M128.6,130.816h18.851V96.788H128.6V130.816z M48.586,135.816H24.736c-1.381,0-2.5-1.119-2.5-2.5V94.288c0-1.381,1.119-2.5,2.5-2.5
	h23.851c1.381,0,2.5,1.119,2.5,2.5v39.028C51.086,134.697,49.967,135.816,48.586,135.816z M27.236,130.816h18.851V96.788H27.236
	V130.816z M87.422,62.437c-8.153,0-14.786-6.634-14.786-14.787s6.633-14.786,14.786-14.786s14.787,6.633,14.787,14.786
	S95.575,62.437,87.422,62.437z M87.422,37.863c-5.396,0-9.786,4.39-9.786,9.786s4.39,9.787,9.786,9.787
	c5.396,0,9.787-4.391,9.787-9.787S92.818,37.863,87.422,37.863z"/>
</svg>