<?xml version="1.0" encoding="iso-8859-1"?>
<!-- Uploaded to: SVG Repo, www.svgrepo.com, Generator: SVG Repo Mixer Tools -->
<svg version="1.1" id="Layer_1" xmlns="http://www.w3.org/2000/svg" xmlns:xlink="http://www.w3.org/1999/xlink" 
	 viewBox="0 0 512.001 512.001" xml:space="preserve">
<polygon style="fill:#A05755;" points="494.344,489.93 291.31,489.93 291.31,286.897 494.344,339.862 "/>
<polygon style="fill:#914646;" points="291.31,286.897 291.31,313.379 494.344,366.345 494.344,339.862 "/>
<path style="fill:#707487;" d="M503.179,348.692c-0.682,0-1.375-0.079-2.068-0.246L280.422,295.48
	c-4.74-1.138-7.661-5.903-6.524-10.644c1.138-4.741,5.899-7.661,10.644-6.524l220.689,52.965c4.74,1.138,7.661,5.903,6.524,10.644
	C510.784,345.971,507.167,348.692,503.179,348.692z"/>
<rect x="229.52" y="39.724" style="fill:#5B5D6E;" width="35.31" height="52.965"/>
<polygon style="fill:#AF6964;" points="17.656,128.001 154.483,22.07 291.31,128.001 291.31,489.93 17.656,489.93 "/>
<polygon style="fill:#A05755;" points="17.656,154.484 154.483,54.974 291.31,154.484 291.31,128.001 154.483,22.07 17.656,128.001 
	"/>
<rect x="17.656" y="428.14" style="fill:#914646;" width="273.65" height="17.655"/>
<rect x="17.656" y="445.79" style="fill:#A05755;" width="273.65" height="44.14"/>
<rect x="61.794" y="331.03" style="fill:#B4E1FA;" width="70.62" height="105.93"/>
<polygon style="fill:#DAF0FD;" points="75.587,331.034 132.414,432.061 132.414,384.981 102.069,331.034 "/>
<g>
	<rect x="61.794" y="331.03" style="fill:#A0D2F0;" width="70.62" height="35.31"/>
	<polygon style="fill:#A0D2F0;" points="61.794,353.594 61.794,436.965 108.69,436.965 	"/>
</g>
<polygon style="fill:#B4E1FA;" points="121.931,366.345 102.069,331.034 75.587,331.034 95.449,366.345 "/>
<path style="fill:#FFFFFF;" d="M132.414,322.207h-70.62c-4.875,0-8.828,3.953-8.828,8.828v105.931c0,4.875,3.953,8.828,8.828,8.828
	h70.62c4.875,0,8.828-3.953,8.828-8.828V331.034C141.242,326.159,137.289,322.207,132.414,322.207z M123.587,339.862v17.655H70.621
	v-17.655H123.587z M70.621,428.137v-52.965h52.965v52.965H70.621z"/>
<rect x="176.55" y="331.03" style="fill:#B4E1FA;" width="70.62" height="105.93"/>
<polygon style="fill:#DAF0FD;" points="190.345,331.034 247.172,432.061 247.172,384.981 216.828,331.034 "/>
<g>
	<rect x="176.55" y="331.03" style="fill:#A0D2F0;" width="70.62" height="35.31"/>
	<polygon style="fill:#A0D2F0;" points="176.552,353.594 176.552,436.965 223.448,436.965 	"/>
</g>
<polygon style="fill:#B4E1FA;" points="236.69,366.345 216.828,331.034 190.345,331.034 210.207,366.345 "/>
<path style="fill:#FFFFFF;" d="M247.172,322.207h-70.62c-4.875,0-8.828,3.953-8.828,8.828v105.931c0,4.875,3.953,8.828,8.828,8.828
	h70.62c4.875,0,8.828-3.953,8.828-8.828V331.034C256,326.159,252.047,322.207,247.172,322.207z M238.345,339.862v17.655H185.38
	v-17.655H238.345z M185.379,428.137v-52.965h52.965v52.965H185.379z"/>
<rect x="61.794" y="163.31" style="fill:#B4E1FA;" width="70.62" height="105.93"/>
<polygon style="fill:#DAF0FD;" points="75.587,163.311 132.414,264.338 132.414,217.257 102.069,163.311 "/>
<g>
	<rect x="61.794" y="163.31" style="fill:#A0D2F0;" width="70.62" height="35.31"/>
	<polygon style="fill:#A0D2F0;" points="61.794,185.871 61.794,269.242 108.69,269.242 	"/>
</g>
<polygon style="fill:#B4E1FA;" points="121.931,198.621 102.069,163.311 75.587,163.311 95.449,198.621 "/>
<path style="fill:#FFFFFF;" d="M132.414,154.484h-70.62c-4.875,0-8.828,3.953-8.828,8.828v105.931c0,4.875,3.953,8.828,8.828,8.828
	h70.62c4.875,0,8.828-3.953,8.828-8.828V163.311C141.242,158.436,137.289,154.484,132.414,154.484z M123.587,172.139v17.655H70.621
	v-17.655H123.587z M70.621,260.414v-52.965h52.965v52.965H70.621z"/>
<rect x="176.55" y="163.31" style="fill:#B4E1FA;" width="70.62" height="105.93"/>
<polygon style="fill:#DAF0FD;" points="190.345,163.311 247.172,264.338 247.172,217.257 216.828,163.311 "/>
<g>
	<rect x="176.55" y="163.31" style="fill:#A0D2F0;" width="70.62" height="35.31"/>
	<polygon style="fill:#A0D2F0;" points="176.552,185.871 176.552,269.242 223.448,269.242 	"/>
</g>
<polygon style="fill:#B4E1FA;" points="236.69,198.621 216.828,163.311 190.345,163.311 210.207,198.621 "/>
<path style="fill:#FFFFFF;" d="M247.172,154.484h-70.62c-4.875,0-8.828,3.953-8.828,8.828v105.931c0,4.875,3.953,8.828,8.828,8.828
	h70.62c4.875,0,8.828-3.953,8.828-8.828V163.311C256,158.436,252.047,154.484,247.172,154.484z M238.345,172.139v17.655H185.38
	v-17.655H238.345z M185.379,260.414v-52.965h52.965v52.965H185.379z"/>
<path style="fill:#707487;" d="M300.13,136.829c-1.801,0-3.617-0.548-5.184-1.689L154.483,32.986L14.02,135.14
	c-3.942,2.868-9.463,1.995-12.331-1.948s-1.996-9.463,1.948-12.331l145.654-105.93c3.095-2.251,7.288-2.251,10.383,0
	l145.655,105.931c3.943,2.868,4.814,8.388,1.948,12.331C305.55,135.568,302.859,136.829,300.13,136.829z"/>
<path style="fill:#E4EAF6;" d="M463.447,375.172H322.206c-2.438,0-4.414,1.976-4.414,4.414V489.93H467.86V379.586
	C467.861,377.148,465.885,375.172,463.447,375.172z"/>
<g>
	<path style="fill:#C7CFE2;" d="M463.447,375.172H322.206c-2.438,0-4.414,1.976-4.414,4.414v13.241H467.86v-13.241
		C467.861,377.148,465.885,375.172,463.447,375.172z"/>
	<rect x="317.79" y="410.48" style="fill:#C7CFE2;" width="150.07" height="17.655"/>
	<rect x="317.79" y="445.79" style="fill:#C7CFE2;" width="150.07" height="17.655"/>
</g>
<path style="fill:#8F96AC;" d="M507.585,498.758H4.415c-2.438,0-4.414-1.976-4.414-4.414v-8.828c0-2.438,1.976-4.414,4.414-4.414
	h503.17c2.438,0,4.414,1.976,4.414,4.414v8.828C511.999,496.782,510.022,498.758,507.585,498.758z"/>
<path style="fill:#6F7589;" d="M269.241,48.553h-44.138c-2.438,0-4.414-1.976-4.414-4.414v-8.828c0-2.438,1.976-4.414,4.414-4.414
	h44.138c2.438,0,4.414,1.976,4.414,4.414v8.828C273.655,46.577,271.679,48.553,269.241,48.553z"/>
</svg>